# xmcd
# 
# Track frame offsets:
#     150
#     17295
#     32247
#     50004
#     68660
#     86546
#     98742
#     120666
# 
# Disc length: 2509
# 
# Revision: 0
# Processed by: cddbd v1.5.2PL0 Copyright (c) Steve Scherf et al.
# Submitted via: BonkEnc v1.0.5
# 
DISCID=5b09cb08
DTITLE=Go Down Moses - Welcome Idiots
DYEAR=2007
DGENRE=Punk Rock
TTITLE0=My, what big teeth you have!
TTITLE1=The return of the Shmoo
TTITLE2=What they did was secret
TTITLE3=Something under the bed is still drooling
TTITLE4=Discodancing on the dead
TTITLE5=Read my lips: no more you
TTITLE6=We're the ones who dress in black (Italian widows)
TTITLE7=We plant pumpkin seeds
EXTD=
EXTT0=
EXTT1=
EXTT2=
EXTT3=
EXTT4=
EXTT5=
EXTT6=
EXTT7=
PLAYORDER=
